<?xml version="1.0" encoding="UTF-8" standalone="no"?>
<!-- Created with Inkscape (http://www.inkscape.org/) -->

<svg
   width="210mm"
   height="297mm"
   viewBox="0 0 210 297"
   version="1.1"
   id="svg5"
   xml:space="preserve"
   inkscape:version="1.2.2 (732a01da63, 2022-12-09)"
   sodipodi:docname="RahmenEntwurfV1.svg"
   xmlns:inkscape="http://www.inkscape.org/namespaces/inkscape"
   xmlns:sodipodi="http://sodipodi.sourceforge.net/DTD/sodipodi-0.dtd"
   xmlns="http://www.w3.org/2000/svg"
   xmlns:svg="http://www.w3.org/2000/svg"><sodipodi:namedview
     id="namedview7"
     pagecolor="#505050"
     bordercolor="#eeeeee"
     borderopacity="1"
     inkscape:showpageshadow="0"
     inkscape:pageopacity="0"
     inkscape:pagecheckerboard="0"
     inkscape:deskcolor="#505050"
     inkscape:document-units="mm"
     showgrid="false"
     inkscape:zoom="1.0544998"
     inkscape:cx="537.69571"
     inkscape:cy="422.94936"
     inkscape:window-width="1920"
     inkscape:window-height="1017"
     inkscape:window-x="-8"
     inkscape:window-y="425"
     inkscape:window-maximized="1"
     inkscape:current-layer="layer3" /><defs
     id="defs2"><rect
       x="42.674262"
       y="623.99255"
       width="199.14656"
       height="90.09011"
       id="rect1300" /><rect
       x="53.644907"
       y="644.40945"
       width="427.81815"
       height="81.137923"
       id="rect1118" /></defs><g
     inkscape:label="Ebene 1"
     inkscape:groupmode="layer"
     id="layer1"><rect
       style="fill:none;stroke:#000000;stroke-width:1;stroke-opacity:1"
       id="rect234"
       width="110"
       height="180"
       x="10.5"
       y="10.5" /></g><g
     inkscape:groupmode="layer"
     id="layer2"
     inkscape:label="Ebene 2"><rect
       style="fill:none;stroke:#ff0000;stroke-width:1.000125;stroke-dasharray:none;stroke-dashoffset:0"
       id="rect899"
       width="100"
       height="148"
       x="15.5"
       y="15.5" /></g><g
     inkscape:groupmode="layer"
     id="layer3"
     inkscape:label="Ebene 3"><text
       xml:space="preserve"
       style="font-style:normal;font-variant:normal;font-weight:normal;font-stretch:normal;font-size:7.18326px;line-height:1;font-family:Consolas;-inkscape-font-specification:'Consolas, Normal';font-variant-ligatures:normal;font-variant-caps:normal;font-variant-numeric:normal;font-variant-east-asian:normal;text-align:end;text-anchor:end;fill:none;stroke:#ff0000;stroke-width:0.224476;stroke-dasharray:none;stroke-dashoffset:0"
       x="93.313866"
       y="187.23892"
       id="text957"
       transform="scale(1.083074,0.92329794)"><tspan
         sodipodi:role="line"
         style="font-style:normal;font-variant:normal;font-weight:normal;font-stretch:normal;font-size:7.18326px;font-family:Consolas;-inkscape-font-specification:'Consolas, Normal';font-variant-ligatures:normal;font-variant-caps:normal;font-variant-numeric:normal;font-variant-east-asian:normal;text-align:center;writing-mode:lr-tb;direction:ltr;text-anchor:middle;fill:none;stroke:#000000;stroke-width:0.224476;stroke-dasharray:none;stroke-opacity:1"
         x="93.313866"
         y="187.23892"
         id="tspan1217">STUDIEN-</tspan><tspan
         sodipodi:role="line"
         style="font-style:normal;font-variant:normal;font-weight:normal;font-stretch:normal;font-size:7.18326px;font-family:Consolas;-inkscape-font-specification:'Consolas, Normal';font-variant-ligatures:normal;font-variant-caps:normal;font-variant-numeric:normal;font-variant-east-asian:normal;text-align:center;writing-mode:lr-tb;direction:ltr;text-anchor:middle;fill:none;stroke:#000000;stroke-width:0.224476;stroke-dasharray:none;stroke-opacity:1"
         x="93.313866"
         y="194.42218"
         id="tspan1278">INFOTAG</tspan><tspan
         sodipodi:role="line"
         style="font-style:normal;font-variant:normal;font-weight:normal;font-stretch:normal;font-size:7.18326px;font-family:Consolas;-inkscape-font-specification:'Consolas, Normal';font-variant-ligatures:normal;font-variant-caps:normal;font-variant-numeric:normal;font-variant-east-asian:normal;text-align:center;writing-mode:lr-tb;direction:ltr;text-anchor:middle;fill:none;stroke:#000000;stroke-width:0.224476;stroke-dasharray:none;stroke-opacity:1"
         x="93.313866"
         y="201.60544"
         id="tspan1221"> 2023</tspan></text><text
       xml:space="preserve"
       transform="matrix(0.24302017,0,0,0.22498154,-1.1014101,28.806431)"
       id="text1298"
       style="font-style:normal;font-variant:normal;font-weight:normal;font-stretch:normal;font-size:32px;line-height:0;font-family:Consolas;-inkscape-font-specification:'Consolas, Normal';font-variant-ligatures:normal;font-variant-caps:normal;font-variant-numeric:normal;font-variant-east-asian:normal;text-align:center;writing-mode:lr-tb;direction:ltr;white-space:pre;shape-inside:url(#rect1300);fill:none;stroke:#000000;stroke-width:1;stroke-dasharray:none;stroke-dashoffset:0;stroke-opacity:1"
       x="0"
       y="0"><tspan
         x="54.27832"
         y="647.75781"
         id="tspan2299"><tspan
           style="line-height:1"
           id="tspan2297">HOCHSCHULE
</tspan></tspan><tspan
         x="71.87207"
         y="679.75781"
         id="tspan2303"><tspan
           style="line-height:1"
           id="tspan2301">LANDSHUT
</tspan></tspan></text></g><g
     inkscape:groupmode="layer"
     id="layer4"
     inkscape:label="Ebene 4"><path
       d="m 73.667497,184.50911 c -0.481524,0.0571 -1.063415,0.1141 -1.165566,0.14263 -0.171253,0.0209 -0.326621,0.0285 -0.46655,0.0285 -0.292392,0 -0.492015,-0.0571 -0.599326,-0.14261 -0.108185,-0.11411 -0.161402,-0.28526 -0.161402,-0.52771 l 0.01178,-9.3846 c 0,-0.83862 -0.208784,-1.50323 -0.627497,-1.99672 -0.419145,-0.49347 -1.123447,-0.73878 -2.11273,-0.73878 -0.469596,0 -0.920204,0.0571 -1.35165,0.17114 -0.431283,0.11411 -0.812032,0.29381 -1.141827,0.53343 v -5.7366 h -3.007505 v 13.03146 h 3.007505 v -4.15062 c 0,-0.30235 0.04388,-0.57905 0.132984,-0.82435 0.08893,-0.25672 0.202845,-0.45641 0.342296,-0.63041 0.140068,-0.17114 0.295495,-0.30236 0.466469,-0.39364 0.171321,-0.0856 0.339949,-0.14261 0.504478,-0.14261 0.292077,0 0.491444,0.11409 0.600155,0.33944 0.107134,0.2282 0.161647,0.52199 0.161647,0.88712 l 0.0058,9.55802 c 0,0.28523 0.04785,0.54481 0.143033,0.78727 0.09523,0.22819 0.247495,0.45353 0.456981,0.6361 0.209402,0.17113 0.46899,0.32802 0.780486,0.43356 0.310866,0.11411 0.687787,0.14263 1.131965,0.17115 0.7585,0.0197 2.013028,-0.19966 2.888442,-0.38223 v -1.65157"
       style="fill:none;fill-opacity:1;fill-rule:nonzero;stroke:#ff0000;stroke-width:0.605508;stroke-dasharray:none;stroke-opacity:1"
       id="path188" /><circle
       style="fill:none;stroke:#000000;stroke-width:0.915416;stroke-dasharray:none;stroke-dashoffset:0;stroke-opacity:1"
       id="path2214"
       cx="67.798706"
       cy="176.99994"
       r="12.042292" /></g><g
     inkscape:groupmode="layer"
     id="layer5"
     inkscape:label="Ebene 5"><path
       style="fill:none;stroke:#000000;stroke-width:0.749649;stroke-dasharray:none;stroke-dashoffset:0;stroke-opacity:1"
       d="m 25.651787,14.955357 c -10.615753,0.141605 -10.615753,0.141605 -10.615753,0.141605 l 0.12489,10.478816"
       id="path2094" /><path
       style="fill:none;stroke:#000000;stroke-width:0.749649;stroke-dasharray:none;stroke-dashoffset:0;stroke-opacity:1"
       d="m 105.21467,14.923339 c 10.61575,0.141605 10.61575,0.141605 10.61575,0.141605 l -0.12489,10.478816"
       id="path2094-4" /><path
       style="fill:none;stroke:#000000;stroke-width:0.749649;stroke-dasharray:none;stroke-dashoffset:0;stroke-opacity:1"
       d="m 105.39209,163.91537 c 10.61575,-0.1416 10.61575,-0.1416 10.61575,-0.1416 l -0.12489,-10.47882"
       id="path2094-4-3" /><path
       style="fill:none;stroke:#000000;stroke-width:0.749649;stroke-dasharray:none;stroke-dashoffset:0;stroke-opacity:1"
       d="m 25.720813,163.91537 c -10.615753,-0.1416 -10.615753,-0.1416 -10.615753,-0.1416 l 0.12489,-10.47882"
       id="path2094-4-3-9" /></g></svg>
